<svg width="400" height="400" viewBox="0 0 680 520" role="img" xmlns="http://www.w3.org/2000/svg">
  <title>EnvGuard logo</title>
  <desc>Green shield with .ENV file and magnifying glass icon</desc>

  <rect width="680" height="520" fill="#1a1a2e" rx="20"/>

  <path d="M340 60 L460 108 L460 250 Q460 340 340 385 Q220 340 220 250 L220 108 Z"
        fill="#2a5a40" opacity="0.5" transform="translate(4,6)"/>

  <path d="M340 60 L460 108 L460 250 Q460 340 340 385 Q220 340 220 250 L220 108 Z"
        fill="#4caf82"/>

  <path d="M340 78 L448 122 L448 248 Q448 328 340 368 Q232 328 232 248 L232 122 Z"
        fill="#3d9e70"/>

  <path d="M340 78 L380 94 L380 160 Q370 190 340 205 Q310 190 300 160 L300 94 Z"
        fill="#5dc48a" opacity="0.25"/>

  <rect x="292" y="148" width="82" height="100" rx="6"
        fill="#f0f4f8" stroke="#c8d6e0" stroke-width="1.5"/>

  <path d="M352 148 L374 170 L352 170 Z" fill="#c8d6e0"/>
  <path d="M352 148 L374 148 L374 170 L352 170 Z" fill="#dce8f0"/>

  <line x1="304" y1="184" x2="362" y2="184" stroke="#9bb0c0" stroke-width="2" stroke-linecap="round"/>
  <line x1="304" y1="196" x2="356" y2="196" stroke="#9bb0c0" stroke-width="2" stroke-linecap="round"/>
  <line x1="304" y1="208" x2="348" y2="208" stroke="#9bb0c0" stroke-width="1.5" stroke-linecap="round"/>

  <rect x="301" y="155" width="42" height="18" rx="3" fill="#3d9e70"/>
  <text x="322" y="168" text-anchor="middle"
        font-family="'Courier New', monospace" font-size="10"
        fill="#ffffff" font-weight="700">.ENV</text>

  <line x1="358" y1="228" x2="382" y2="252"
        stroke="#2a5a40" stroke-width="9" stroke-linecap="round"/>
  <line x1="358" y1="228" x2="382" y2="252"
        stroke="#4a8a60" stroke-width="6" stroke-linecap="round"/>

  <circle cx="340" cy="214" r="28" fill="#2a5a40" opacity="0.6"/>
  <circle cx="340" cy="214" r="26" fill="#1a3a28" stroke="#4caf82" stroke-width="5"/>
  <circle cx="340" cy="214" r="20" fill="#e8f4f0" opacity="0.92"/>
  <circle cx="333" cy="207" r="5" fill="#ffffff" opacity="0.4"/>

  <text x="340" y="432" text-anchor="middle"
        font-family="'Courier New', monospace" font-size="32"
        fill="#e8f4f0" font-weight="700" letter-spacing="3">EnvGuard</text>

  <text x="340" y="462" text-anchor="middle"
        font-family="'Courier New', monospace" font-size="12"
        fill="#4caf82" letter-spacing="1">detect .env drift before it breaks your deployments</text>

  <line x1="240" y1="478" x2="440" y2="478"
        stroke="#4caf82" stroke-width="0.5" opacity="0.5"/>
</svg>
